# xmcd
#
# Track frame offsets:
#	150
#	12844
#	27236
#	42510
#	57106
#	70344
#	83724
#	98284
#	112362
#	127271
#	141366
#	156617
#	169813
#	183006
#	198058
#	213869
#	230266
#	244582
#	259482
#	273748
#
# Disc length: 3830 seconds
#
# Revision: 0
# Processed by: cddbd v1.5.2PL0 Copyright (c) Steve Scherf et al.
# Submitted via: EasyCDDAExtractor 16.0.6.1
#
DISCID=200ef414
DTITLE=Καζαντζίδης Στέλιος-Μαρινέλλα - Καζαντζίδης-Μαρινέλλα-Polygram
DYEAR=1973
DGENRE=Λαϊκή
TTITLE0=Καζαντζίδης Στέλιος-Μαρινέλλα - Μη μού λέτε γι' αυτή [Σ. Καζαντζίδης-Ν
TTITLE0=Πετρίδης-Πυθαγόρας]
TTITLE1=Καζαντζίδης Στέλιος-Μαρινέλλα - Απόψε σ' έχω στην αγκαλιά μου [Χρ. Νικ
TTITLE1=ολόπουλος-Πυθαγόρας]
TTITLE2=Καζαντζίδης Στέλιος - Μ' άναψες φωτιά [Σ. Καζαντζίδης-Κ. Δελαγραμμάτικ
TTITLE2=ας]
TTITLE3=Καζαντζίδης Στέλιος-Μαρινέλλα - Θα κλάψεις μιά μέρα [Σ. Καζαντζίδης-Ν.
TTITLE3=Πετρίδης-Πυθαγόρας]
TTITLE4=Καζαντζίδης Στέλιος - Στα βράχια της Πειραϊκής [Σ. Καζαντζίδης-Ν. Πετρ
TTITLE4=ίδης-Πυθαγόρας]
TTITLE5=Καζαντζίδης Στέλιος-Μαρινέλλα - Η καρδιά της μάννας [Σ. Καζαντζίδης-Ν.
TTITLE5=Πετρίδης-Πυθαγόρας]
TTITLE6=Καζαντζίδης Στέλιος-Μαρινέλλα - Απάνω που σε ξέχασα [Σ. Καζαντζίδης-Ν.
TTITLE6=Πετρίδης-Πυθαγόρας]
TTITLE7=Καζαντζίδης Στέλιος-Μαρινέλλα - Ένα ποτήρι δάκρυα [Σ. Καζαντζίδης-Ν. Π
TTITLE7=ετρίδης-Πυθαγόρας]
TTITLE8=Καζαντζίδης Στέλιος-Μαρινέλλα - Τα γλυκά που ψώνισα [Σ. Καζαντζίδης-Ν.
TTITLE8=Πετρίδης-Πυθαγόρας]
TTITLE9=Καζαντζίδης Στέλιος - Η πιο μεγάλη αμαρτία [Κ. Σταματάκης-Πυθαγόρας]
TTITLE10=Καζαντζίδης Στέλιος-Μαρινέλλα - Γλυκειά φελάχα κλάψε [Σ.Καζαντζίδης-Χ
TTITLE10=ρ.Κολοκοτρώνης-Β.Καραπατάκης]
TTITLE11=Καζαντζίδης Στέλιος-Μαρινέλλα - Αύριο σε χάνω [Κ. Σταματάκης-Πυθαγόρα
TTITLE11=ς]
TTITLE12=Καζαντζίδης Στέλιος - Είμαι κι εγώ αμαρτωλός [Σ. Καζαντζίδης-Ν. Πετρί
TTITLE12=δης-Πυθαγόρας]
TTITLE13=Καζαντζίδης Στέλιος - Δεν άλλαξε η καρδιά μου [Σ. Καζαντζίδης-Ν. Πετρ
TTITLE13=ίδης-Πυθαγόρας]
TTITLE14=Καζαντζίδης Στέλιος-Μαρινέλλα - Γλυκειά μου Αθηναίϊσσα [Σ. Καζαντζίδη
TTITLE14=ς-Χρ. Κολοκοτρώνης]
TTITLE15=Καζαντζίδης Στέλιος-Μαρινέλλα - Το τραγούδι της φτωχολογιάς [Σ. Καζαν
TTITLE15=τζίδης-Κ. Δελαγραμμάτικας]
TTITLE16=Καζαντζίδης Στέλιος-Μαρινέλλα - Τα ροζιασμένα χέρια μου [Σ. Καζαντζίδ
TTITLE16=ης-Ν. Πετρίδης-Πυθαγόρας]
TTITLE17=Καζαντζίδης Στέλιος-Μαρινέλλα - Άσε με να ζήσω μοναχός [Χρ. Νικολόπου
TTITLE17=λος-Πυθαγόρας]
TTITLE18=Καζαντζίδης Στέλιος-Μαρινέλλα - Ένα ρεμάλι του Πειραιά [Σ. Καζαντζίδη
TTITLE18=ς-Ν. Πετρίδης-Πυθαγόρας]
TTITLE19=Καζαντζίδης Στέλιος - Γλυκειά μου μάννα [Χρ. Κολοκοτρώνης-Β. Καραπατά
TTITLE19=κης]
EXTD=
EXTT0=
EXTT1=
EXTT2=
EXTT3=
EXTT4=
EXTT5=
EXTT6=
EXTT7=
EXTT8=
EXTT9=
EXTT10=
EXTT11=
EXTT12=
EXTT13=
EXTT14=
EXTT15=
EXTT16=
EXTT17=
EXTT18=
EXTT19=
PLAYORDER=
